# xmcd
#
# Track frame offsets: 
#        150
#        10581
#        23547
#        50611
#        68647
#        71933
#        93221
#        116163
#        133037
#        152893
#        178739
#        189094
#
# Disc length: 2790 seconds
#
# Revision: 0
# Processed by: cddbd v1.5.2PL0 Copyright (c) Steve Scherf et al.
# Submitted via: ExactAudioCopyFreeDBPlugin 1.0
#
DISCID=9a0ae40c
DTITLE=Kajdan rough trio - in a new light
DYEAR=2012
DGENRE=Blues
TTITLE0=Pick up da funk
TTITLE1=Too much to lose
TTITLE2=Rough down shuffle
TTITLE3=In a new light
TTITLE4=Mgalawazy
TTITLE5=Der aktivist
TTITLE6=Lodz memories
TTITLE7=Roof 93
TTITLE8=East side rumba
TTITLE9=Time out of mind
TTITLE10=In a new light epilogue-1
TTITLE11=In a new light epilogue-2
EXTD=
EXTT0=
EXTT1=
EXTT2=
EXTT3=
EXTT4=
EXTT5=
EXTT6=
EXTT7=
EXTT8=
EXTT9=
EXTT10=
EXTT11=
PLAYORDER=
